name ./resultDataOpenSim/trcMotMarkerGrf/sub09/grf-04-08.mot
datacolumns 19
datarows 27
range 0.49600000 0.60000000
endheader

                time	     ground_force_vx	     ground_force_vy	     ground_force_vz	     ground_force_px	     ground_force_py	     ground_force_pz	   l_ground_force_vx	   l_ground_force_vy	   l_ground_force_vz	   l_ground_force_px	   l_ground_force_py	   l_ground_force_pz	     ground_torque_x	     ground_torque_y	     ground_torque_z	   l_ground_torque_x	   l_ground_torque_y	   l_ground_torque_z	
          0.49600000	         36.45107095	        394.37709295	        -18.64414807	         -0.69275674	          0.00000000	          0.11753438	          0.00000000	          0.00000000	          0.00000000	          0.00000000	          0.00000000	          0.00000000	          0.00000000	          3.76977943	          0.00000000	          0.00000000	          0.00000000	          0.00000000	
          0.50000000	         38.22507212	        398.62523312	        -19.15809740	         -0.69180835	          0.00000000	          0.11710218	          0.00000000	          0.00000000	          0.00000000	          0.00000000	          0.00000000	          0.00000000	          0.00000000	          3.99893313	          0.00000000	          0.00000000	          0.00000000	          0.00000000	
          0.50400000	         40.19885107	        403.76679913	        -19.87926272	         -0.69082041	          0.00000000	          0.11660730	          0.00000000	          0.00000000	          0.00000000	          0.00000000	          0.00000000	          0.00000000	          0.00000000	          4.20290801	          0.00000000	          0.00000000	          0.00000000	          0.00000000	
          0.50800000	         42.39629660	        410.00946048	        -20.62474898	         -0.68981036	          0.00000000	          0.11605432	          0.00000000	          0.00000000	          0.00000000	          0.00000000	          0.00000000	          0.00000000	          0.00000000	          4.40698855	          0.00000000	          0.00000000	          0.00000000	          0.00000000	
          0.51200000	         44.75151841	        417.56417158	        -21.19794314	         -0.68878013	          0.00000000	          0.11543526	          0.00000000	          0.00000000	          0.00000000	          0.00000000	          0.00000000	          0.00000000	          0.00000000	          4.64026915	          0.00000000	          0.00000000	          0.00000000	          0.00000000	
          0.51600000	         47.13598303	        426.61237766	        -21.43681061	         -0.68772296	          0.00000000	          0.11474177	          0.00000000	          0.00000000	          0.00000000	          0.00000000	          0.00000000	          0.00000000	          0.00000000	          4.92728612	          0.00000000	          0.00000000	          0.00000000	          0.00000000	
          0.52000000	         49.40793995	        437.26500175	        -21.25713805	         -0.68662637	          0.00000000	          0.11398000	          0.00000000	          0.00000000	          0.00000000	          0.00000000	          0.00000000	          0.00000000	          0.00000000	          5.28067916	          0.00000000	          0.00000000	          0.00000000	          0.00000000	
          0.52400000	         51.46689940	        449.54292989	        -20.67763729	         -0.68547946	          0.00000000	          0.11317463	          0.00000000	          0.00000000	          0.00000000	          0.00000000	          0.00000000	          0.00000000	          0.00000000	          5.69664522	          0.00000000	          0.00000000	          0.00000000	          0.00000000	
          0.52800000	         53.29713355	        463.38625020	        -19.81732120	         -0.68429118	          0.00000000	          0.11235988	          0.00000000	          0.00000000	          0.00000000	          0.00000000	          0.00000000	          0.00000000	          0.00000000	          6.15420822	          0.00000000	          0.00000000	          0.00000000	          0.00000000	
          0.53200000	         54.98971938	        478.66938498	        -18.86834646	         -0.68309121	          0.00000000	          0.11156934	          0.00000000	          0.00000000	          0.00000000	          0.00000000	          0.00000000	          0.00000000	          0.00000000	          6.61845062	          0.00000000	          0.00000000	          0.00000000	          0.00000000	
          0.53600000	         56.73486970	        495.21041285	        -18.05427575	         -0.68191961	          0.00000000	          0.11083209	          0.00000000	          0.00000000	          0.00000000	          0.00000000	          0.00000000	          0.00000000	          0.00000000	          7.04701419	          0.00000000	          0.00000000	          0.00000000	          0.00000000	
          0.54000000	         58.78516322	        512.78068504	        -17.58210719	         -0.68081355	          0.00000000	          0.11017548	          0.00000000	          0.00000000	          0.00000000	          0.00000000	          0.00000000	          0.00000000	          0.00000000	          7.39847744	          0.00000000	          0.00000000	          0.00000000	          0.00000000	
          0.54400000	         61.39989356	        531.11809712	        -17.59689425	         -0.67979937	          0.00000000	          0.10961824	          0.00000000	          0.00000000	          0.00000000	          0.00000000	          0.00000000	          0.00000000	          0.00000000	          7.64075434	          0.00000000	          0.00000000	          0.00000000	          0.00000000	
          0.54800000	         64.78604465	        549.94389250	        -18.14922011	         -0.67888707	          0.00000000	          0.10916556	          0.00000000	          0.00000000	          0.00000000	          0.00000000	          0.00000000	          0.00000000	          0.00000000	          7.75760058	          0.00000000	          0.00000000	          0.00000000	          0.00000000	
          0.55200000	         69.05322854	        568.98420519	        -19.18245992	         -0.67806814	          0.00000000	          0.10881084	          0.00000000	          0.00000000	          0.00000000	          0.00000000	          0.00000000	          0.00000000	          0.00000000	          7.75176377	          0.00000000	          0.00000000	          0.00000000	          0.00000000	
          0.55600000	         74.19414419	        587.99125916	        -20.54245690	         -0.67731891	          0.00000000	          0.10853608	          0.00000000	          0.00000000	          0.00000000	          0.00000000	          0.00000000	          0.00000000	          0.00000000	          7.64414247	          0.00000000	          0.00000000	          0.00000000	          0.00000000	
          0.56000000	         80.09327393	        606.75356751	        -22.00861066	         -0.67660667	          0.00000000	          0.10831465	          0.00000000	          0.00000000	          0.00000000	          0.00000000	          0.00000000	          0.00000000	          0.00000000	          7.46925391	          0.00000000	          0.00000000	          0.00000000	          0.00000000	
          0.56400000	         86.55894622	        625.09520608	        -23.33928009	         -0.67589693	          0.00000000	          0.10811896	          0.00000000	          0.00000000	          0.00000000	          0.00000000	          0.00000000	          0.00000000	          0.00000000	          7.26810876	          0.00000000	          0.00000000	          0.00000000	          0.00000000	
          0.56800000	         93.36959016	        642.87394193	        -24.31927404	         -0.67516218	          0.00000000	          0.10792475	          0.00000000	          0.00000000	          0.00000000	          0.00000000	          0.00000000	          0.00000000	          0.00000000	          7.08008572	          0.00000000	          0.00000000	          0.00000000	          0.00000000	
          0.57200000	        100.32125266	        659.97974058	        -24.79869438	         -0.67438843	          0.00000000	          0.10771256	          0.00000000	          0.00000000	          0.00000000	          0.00000000	          0.00000000	          0.00000000	          0.00000000	          6.93552468	          0.00000000	          0.00000000	          0.00000000	          0.00000000	
          0.57600000	        107.26154538	        676.32760719	        -24.71767450	         -0.67357519	          0.00000000	          0.10747063	          0.00000000	          0.00000000	          0.00000000	          0.00000000	          0.00000000	          0.00000000	          0.00000000	          6.85053834	          0.00000000	          0.00000000	          0.00000000	          0.00000000	
          0.58000000	        114.10587244	        691.84463155	        -24.11321382	         -0.67273125	          0.00000000	          0.10719264	          0.00000000	          0.00000000	          0.00000000	          0.00000000	          0.00000000	          0.00000000	          0.00000000	          6.82504108	          0.00000000	          0.00000000	          0.00000000	          0.00000000	
          0.58400000	        120.84141248	        706.45670278	        -23.10556857	         -0.67187418	          0.00000000	          0.10687840	          0.00000000	          0.00000000	          0.00000000	          0.00000000	          0.00000000	          0.00000000	          0.00000000	          6.84430538	          0.00000000	          0.00000000	          0.00000000	          0.00000000	
          0.58800000	        127.51986842	        720.07746534	        -21.86890351	         -0.67102476	          0.00000000	          0.10653482	          0.00000000	          0.00000000	          0.00000000	          0.00000000	          0.00000000	          0.00000000	          0.00000000	          6.88360145	          0.00000000	          0.00000000	          0.00000000	          0.00000000	
          0.59200000	        134.23445161	        732.59798625	        -20.59543516	         -0.67019711	          0.00000000	          0.10617313	          0.00000000	          0.00000000	          0.00000000	          0.00000000	          0.00000000	          0.00000000	          0.00000000	          6.91479149	          0.00000000	          0.00000000	          0.00000000	          0.00000000	
          0.59600000	        141.08158472	        743.87857458	        -19.45857750	         -0.66940462	          0.00000000	          0.10580496	          0.00000000	          0.00000000	          0.00000000	          0.00000000	          0.00000000	          0.00000000	          0.00000000	          6.91328096	          0.00000000	          0.00000000	          0.00000000	          0.00000000	
          0.60000000	        148.12247361	        753.75330499	        -18.57948261	         -0.66865576	          0.00000000	          0.10543948	          0.00000000	          0.00000000	          0.00000000	          0.00000000	          0.00000000	          0.00000000	          0.00000000	          6.86364435	          0.00000000	          0.00000000	          0.00000000	          0.00000000	
